<?xml version="1.0" standalone="no"?>
<!DOCTYPE svg PUBLIC "-//W3C//DTD SVG 20010904//EN"
 "http://www.w3.org/TR/2001/REC-SVG-20010904/DTD/svg10.dtd">
<svg version="1.0" xmlns="http://www.w3.org/2000/svg"
 width="3000.000000pt" height="1600.000000pt" viewBox="0 0 3000.000000 1600.000000"
 preserveAspectRatio="xMidYMid meet">

<g transform="translate(0.000000,1600.000000) scale(0.100000,-0.100000)"
fill="#000000" stroke="none">
<path d="M6366 11109 c-713 -73 -1365 -372 -1868 -857 -505 -486 -819 -1098
-929 -1812 -31 -196 -34 -657 -6 -845 57 -380 155 -692 317 -1010 158 -311
332 -550 584 -800 491 -488 1099 -783 1811 -881 182 -25 578 -25 760 0 721 99
1332 399 1830 900 345 348 592 749 746 1216 122 371 167 682 156 1075 -14 476
-125 908 -343 1335 -354 693 -976 1241 -1709 1505 -172 62 -435 128 -620 155
-170 25 -570 36 -729 19z m575 -149 c990 -99 1872 -689 2333 -1562 235 -443
346 -892 346 -1398 0 -801 -303 -1534 -870 -2100 -197 -198 -389 -345 -623
-480 -191 -109 -462 -226 -501 -216 -48 12 -471 303 -535 369 -125 125 -183
257 -182 408 1 142 52 269 146 364 50 51 185 128 335 190 309 128 482 272 467
387 -7 51 -47 112 -97 146 l-39 27 -1 715 0 715 -98 89 c-53 49 -262 242 -464
428 l-368 339 0 355 0 354 170 0 170 0 0 95 0 95 -170 0 -170 0 0 155 0 155
-110 0 -110 0 0 -155 0 -155 -170 0 -170 0 0 -99 0 -99 170 6 170 5 0 -360 0
-360 -112 -105 c-62 -57 -280 -251 -484 -430 -204 -180 -374 -334 -378 -343
-3 -9 -6 -369 -6 -799 0 -662 2 -785 14 -802 14 -18 28 -19 305 -18 217 1 295
5 306 14 13 11 15 88 15 595 0 568 0 583 20 608 32 40 92 47 413 47 290 0 353
-6 377 -35 9 -11 14 -164 19 -617 l6 -603 258 -3 c141 -1 257 -6 257 -11 0
-22 -262 -121 -455 -172 -208 -56 -379 -114 -453 -155 -134 -73 -357 -263
-453 -385 -118 -149 -181 -243 -230 -344 -115 -239 -142 -413 -93 -623 7 -35
14 -65 14 -67 0 -4 -2 -4 -185 55 -327 106 -651 282 -933 507 -126 101 -346
321 -448 449 -363 454 -587 1002 -644 1573 -13 133 -13 449 0 582 115 1164
898 2150 2005 2526 201 68 437 120 645 141 121 13 469 14 591 2z"/>
<path d="M8125 9411 c-11 -5 -23 -7 -27 -5 -3 2 -16 -8 -27 -22 -12 -15 -21
-24 -21 -20 0 4 -12 -6 -26 -21 -14 -15 -22 -21 -18 -13 7 13 5 13 -9 1 -9 -7
-14 -17 -11 -22 3 -5 2 -8 -3 -7 -5 2 -22 -11 -38 -28 -17 -16 -25 -23 -20
-14 6 9 -10 -5 -34 -30 -24 -25 -37 -36 -30 -25 7 11 -7 -1 -32 -26 -24 -25
-39 -38 -34 -29 6 8 -10 -5 -34 -30 -24 -25 -38 -36 -31 -25 7 11 -8 -2 -33
-30 -26 -27 -50 -50 -54 -49 -5 0 -23 -15 -40 -34 l-33 -34 29 -29 c16 -16 27
-29 23 -29 -4 0 10 -11 31 -25 20 -14 37 -32 37 -39 0 -7 12 -23 28 -37 l27
-24 -24 28 c-49 54 -14 25 64 -55 44 -46 73 -78 65 -73 -9 6 -4 -1 10 -14 14
-13 18 -20 10 -16 -10 4 -9 1 2 -8 10 -8 15 -17 11 -20 -3 -4 -1 -7 6 -7 7 0
9 -4 6 -10 -3 -5 -2 -10 4 -10 6 0 8 -7 5 -15 -4 -8 -1 -15 5 -15 6 0 8 -7 5
-15 -4 -8 -2 -15 2 -15 5 0 9 -12 9 -27 1 -16 4 -62 8 -103 8 -80 9 -388 2
-505 -20 -328 -17 -374 25 -383 22 -5 221 -3 249 3 13 2 192 5 397 5 287 1
375 4 383 14 6 7 8 16 4 19 -3 4 -1 7 6 7 9 0 11 8 7 25 -3 13 -6 246 -5 517
3 669 3 638 -13 638 -5 0 -23 14 -41 30 -18 17 -43 40 -56 53 -13 12 -21 15
-16 7 4 -8 -12 5 -35 30 -24 25 -37 36 -29 25 8 -11 -7 -2 -33 19 -27 21 -48
41 -48 44 0 3 10 -3 23 -14 l22 -19 -19 22 c-10 13 -23 20 -27 17 -5 -3 -35
21 -66 53 -31 32 -51 49 -44 38 7 -11 -4 -2 -24 20 -21 22 -34 33 -30 25 4 -8
-9 3 -29 25 -21 22 -34 33 -31 25 4 -8 -8 1 -27 21 -18 19 -28 28 -23 19 6 -9
-10 5 -34 30 -24 25 -40 38 -36 30 4 -8 -8 1 -27 21 -18 19 -28 28 -23 19 6
-9 -8 2 -30 25 -22 22 -53 52 -70 65 -24 20 -27 21 -15 4 8 -11 2 -6 -14 10
-16 17 -25 24 -22 16 4 -8 -1 -5 -12 8 -11 12 -22 22 -24 21 -1 0 -12 -4 -23
-8z m117 -132 c29 -27 40 -50 13 -27 -49 41 -75 67 -75 73 0 8 20 -7 62 -46z
m134 -115 c19 -17 22 -22 8 -16 -20 10 -52 42 -42 42 3 0 18 -12 34 -26z m124
-104 c13 -11 26 -20 30 -20 5 0 10 -7 14 -15 5 -15 -38 11 -72 43 -22 20 3 13
28 -8z m157 -126 c-7 -7 -37 7 -37 17 0 6 9 5 21 -1 11 -7 19 -14 16 -16z m98
-79 c16 -13 27 -27 23 -30 -3 -3 -20 8 -38 25 -38 36 -28 40 15 5z m148 -126
c18 -17 23 -26 12 -20 -28 15 -55 37 -55 45 0 12 12 6 43 -25z m-651 -1131
c-9 -9 -15 -9 -24 0 -9 9 -7 12 12 12 19 0 21 -3 12 -12z"/>
<path d="M5136 9394 c-4 -9 -9 -14 -12 -11 -3 3 -17 -6 -31 -21 -14 -15 -20
-18 -12 -7 7 11 -7 -1 -32 -26 -24 -25 -37 -36 -29 -24 8 12 -3 3 -24 -19 -22
-23 -35 -34 -30 -26 5 9 -1 4 -13 -10 -13 -14 -28 -25 -35 -25 -7 -1 -12 -6
-10 -13 1 -7 -3 -12 -9 -12 -6 0 -20 -10 -31 -22 -11 -13 -16 -16 -12 -8 3 8
-13 -6 -37 -31 -24 -25 -37 -36 -29 -24 8 12 -3 3 -24 -19 -22 -23 -36 -34
-32 -26 5 8 -9 -3 -30 -26 -22 -22 -34 -33 -29 -24 6 8 -8 -3 -30 -25 -52 -54
-91 -85 -81 -65 5 8 -6 0 -23 -19 -17 -18 -31 -30 -31 -25 -1 5 -7 -2 -15 -16
-8 -14 -15 -20 -15 -15 0 6 -5 3 -10 -5 -5 -8 -15 -15 -22 -15 -7 0 -16 -13
-19 -30 -4 -19 -7 -22 -8 -10 -1 19 -3 18 -24 -5 -12 -14 -18 -19 -13 -10 4 8
-6 -1 -23 -20 -17 -19 -31 -30 -31 -26 0 5 -7 3 -15 -4 -13 -11 -15 -92 -14
-611 0 -459 3 -598 12 -596 7 1 11 -4 9 -11 -2 -9 11 -13 40 -13 24 0 205 -1
403 -4 634 -7 591 -9 607 20 8 13 7 16 -2 10 -9 -5 -11 22 -8 118 1 69 0 123
-4 121 -4 -3 -6 5 -5 16 1 11 4 20 7 20 3 0 6 145 6 322 1 318 4 359 23 410 5
14 7 29 4 32 -4 3 -1 6 6 6 7 0 9 5 5 11 -4 7 4 20 17 31 13 11 17 17 9 13 -8
-4 -4 3 10 16 14 13 19 20 10 15 -8 -5 8 12 35 38 28 25 49 50 49 54 -1 4 10
18 24 32 18 17 22 19 12 5 -7 -11 22 16 64 60 42 43 76 86 76 95 0 13 1 13 10
0 5 -8 10 -10 10 -4 0 5 -7 19 -16 30 -8 10 -12 12 -9 4 4 -8 -10 3 -31 26
-22 22 -34 33 -29 24 6 -9 -10 5 -35 30 -25 25 -40 39 -35 30 6 -9 -10 6 -35
32 -25 27 -50 48 -56 48 -7 0 -15 7 -18 16 -3 8 -10 12 -16 9 -5 -3 -10 1 -10
10 0 9 -4 14 -10 10 -5 -3 -16 5 -24 17 -8 13 -37 41 -63 63 -26 21 -42 30
-34 20 7 -11 -8 3 -34 30 -26 28 -42 41 -35 30 7 -11 -2 -4 -20 15 -18 19 -29
28 -25 20 6 -12 5 -13 -6 -2 -18 17 -46 15 -53 -4z m54 -54 c0 -5 -4 -10 -10
-10 -5 0 -10 5 -10 10 0 6 5 10 10 10 6 0 10 -4 10 -10z m191 -97 c13 -16 12
-17 -3 -4 -10 7 -18 15 -18 17 0 8 8 3 21 -13z m-421 -68 c0 -8 -44 -45 -54
-45 -6 0 2 11 18 25 29 25 36 29 36 20z m551 -42 c13 -16 12 -17 -3 -4 -10 7
-18 15 -18 17 0 8 8 3 21 -13z m-704 -88 c-29 -26 -59 -36 -35 -12 14 14 50
36 58 36 3 0 -8 -11 -23 -24z m-167 -135 c0 -5 -10 -15 -22 -21 l-23 -12 20
21 c23 24 25 25 25 12z m-62 -54 c-7 -8 -15 -12 -17 -11 -5 6 10 25 20 25 5 0
4 -6 -3 -14z m-138 -112 c0 -9 -24 -30 -50 -43 -23 -12 -23 -11 5 17 29 29 45
39 45 26z m640 -1154 c0 -5 -11 -10 -25 -10 -14 0 -25 5 -25 10 0 6 11 10 25
10 14 0 25 -4 25 -10z m210 -10 c0 -5 -4 -10 -10 -10 -5 0 -10 5 -10 10 0 6 5
10 10 10 6 0 10 -4 10 -10z"/>
<path d="M7589 8983 c-13 -16 -12 -17 4 -4 9 7 17 15 17 17 0 8 -8 3 -21 -13z"/>
<path d="M8670 8996 c0 -2 8 -10 18 -17 15 -13 16 -12 3 4 -13 16 -21 21 -21
13z"/>
<path d="M4609 8973 c-13 -16 -12 -17 4 -4 9 7 17 15 17 17 0 8 -8 3 -21 -13z"/>
<path d="M5371 7554 c0 -11 3 -14 6 -6 3 7 2 16 -1 19 -3 4 -6 -2 -5 -13z"/>
<path d="M12623 9677 l-213 -112 0 -57 0 -58 55 0 c43 0 56 -4 65 -19 13 -26
14 -1235 0 -1260 -9 -18 -42 -34 -92 -45 -27 -6 -28 -9 -28 -66 l0 -60 355 0
356 0 -3 62 -3 62 -39 8 c-83 17 -76 -59 -76 850 l0 808 -82 0 -83 -1 -212
-112z"/>
<path d="M17495 9779 c-195 -17 -374 -93 -502 -213 -127 -118 -205 -259 -249
-451 -26 -112 -26 -368 0 -480 44 -192 122 -333 249 -451 131 -122 306 -195
512 -213 308 -27 548 71 701 285 49 68 128 228 122 246 -4 10 -169 72 -173 65
-1 -1 -14 -33 -30 -72 -38 -94 -82 -161 -143 -221 -66 -65 -134 -101 -224
-120 -176 -37 -315 23 -386 168 -62 127 -82 263 -82 553 0 290 20 426 82 553
59 120 150 176 288 176 78 0 92 -3 164 -37 102 -48 212 -156 281 -275 30 -51
53 -81 61 -78 7 3 31 10 53 16 23 6 41 15 41 20 0 11 -85 432 -96 475 -6 24
-10 25 -73 25 -67 0 -67 0 -84 -35 l-17 -35 -70 35 c-117 59 -253 79 -425 64z"/>
<path d="M10570 9691 c0 -65 -1 -64 75 -76 45 -7 67 -20 83 -52 9 -16 12 -201
12 -688 0 -487 -3 -672 -12 -688 -16 -32 -38 -45 -83 -52 -76 -12 -75 -11 -75
-76 l0 -59 413 0 c496 1 737 12 876 40 307 62 443 202 443 453 -1 129 -44 227
-130 296 -47 36 -173 98 -219 107 -44 8 -42 18 10 34 111 33 211 109 253 192
49 97 48 263 -1 365 -35 70 -118 144 -199 176 -168 68 -398 86 -1058 87 l-388
0 0 -59z m1010 -168 c44 -23 59 -37 80 -78 22 -44 25 -62 25 -155 0 -90 -3
-112 -24 -153 -45 -92 -123 -127 -283 -127 l-98 0 0 252 c0 220 2 254 17 270
14 15 32 18 123 18 96 0 112 -3 160 -27z m-21 -729 c66 -19 122 -69 152 -137
20 -44 24 -68 24 -163 0 -103 -2 -114 -30 -169 -25 -47 -40 -63 -85 -89 -52
-29 -62 -31 -178 -35 -176 -5 -162 -33 -162 321 l0 288 113 0 c74 0 132 -5
166 -16z"/>
<path d="M13405 9101 l-210 -109 -3 -61 -3 -61 49 0 c26 0 53 -5 60 -12 9 -9
12 -76 12 -237 0 -352 18 -452 99 -544 48 -54 140 -95 236 -106 132 -14 243 8
377 75 37 19 70 34 73 34 3 0 5 -25 5 -56 l0 -57 63 8 c166 19 253 24 380 25
l138 0 -3 62 -3 62 -39 8 c-81 17 -76 -23 -76 560 l0 518 -80 0 -81 0 -214
-112 -215 -112 0 -58 0 -58 55 0 c43 0 56 -4 65 -19 6 -12 10 -126 10 -300 l0
-281 -52 -26 c-101 -51 -211 -41 -255 24 -17 25 -18 62 -21 485 l-3 457 -77 0
-77 0 -210 -109z"/>
<path d="M15336 9199 c-212 -23 -394 -146 -481 -324 -49 -99 -66 -174 -66
-290 -1 -182 50 -314 166 -431 126 -126 285 -185 500 -185 264 0 423 92 558
321 l26 44 -75 44 c-42 24 -77 42 -78 40 -54 -96 -147 -192 -224 -229 -56 -28
-174 -38 -234 -20 -114 35 -178 169 -178 379 l0 72 381 0 382 0 -6 74 c-8 92
-45 211 -86 275 -110 172 -330 258 -585 230z m173 -187 c40 -29 62 -76 68
-142 l6 -60 -163 0 -163 0 6 49 c7 55 34 116 65 144 44 40 133 45 181 9z"/>
<path d="M19019 9199 c-289 -26 -506 -201 -565 -457 -9 -37 -16 -107 -16 -157
0 -302 171 -519 467 -596 60 -15 112 -20 205 -20 93 0 145 5 205 20 296 77
467 294 467 596 0 402 -314 655 -763 614z m146 -170 c112 -31 154 -150 155
-439 0 -233 -24 -351 -83 -408 -74 -71 -180 -71 -254 0 -59 57 -83 175 -83
408 1 284 43 408 150 438 47 14 68 14 115 1z"/>
<path d="M20085 9101 l-210 -109 -3 -61 -3 -61 49 0 c26 0 53 -5 60 -12 9 -9
12 -76 12 -237 0 -352 18 -452 99 -544 48 -54 140 -95 236 -106 132 -14 243 8
377 75 37 19 70 34 73 34 3 0 5 -25 5 -56 l0 -57 63 8 c166 19 253 24 380 25
l138 0 -3 62 -3 62 -39 8 c-81 17 -76 -23 -76 560 l0 518 -80 0 -81 0 -214
-112 -215 -112 0 -58 0 -58 55 0 c43 0 56 -4 65 -19 6 -12 10 -126 10 -300 l0
-281 -52 -26 c-101 -51 -211 -41 -255 24 -17 25 -18 62 -21 485 l-3 457 -77 0
-77 0 -210 -109z"/>
<path d="M21653 9097 l-213 -111 0 -58 0 -58 55 0 c43 0 56 -4 65 -19 13 -25
14 -655 0 -680 -9 -18 -42 -34 -92 -45 -27 -6 -28 -9 -28 -66 l0 -60 355 0
356 0 -3 62 -3 62 -39 8 c-80 17 -77 -2 -74 387 l3 346 37 18 c55 27 90 16
131 -42 40 -56 87 -81 151 -81 81 0 155 54 186 135 17 45 14 148 -6 187 -35
71 -83 104 -165 117 -93 15 -204 -21 -296 -96 l-43 -34 0 70 0 71 -82 0 -83
-1 -212 -112z"/>
<path d="M23093 9199 c-190 -19 -346 -116 -410 -255 -35 -77 -35 -180 -1 -256
52 -111 160 -187 394 -274 230 -86 264 -109 264 -177 0 -51 -15 -76 -55 -93
-140 -58 -403 62 -539 245 l-41 56 -42 -9 c-30 -6 -43 -14 -43 -26 0 -9 18
-102 40 -206 22 -104 40 -192 40 -196 0 -5 23 -8 50 -8 47 0 51 2 66 34 l17
34 64 -29 c100 -46 222 -71 338 -70 300 2 512 157 532 389 8 102 -14 166 -82
240 -65 70 -138 111 -323 181 -218 83 -252 107 -252 178 0 71 44 100 140 91
114 -11 264 -128 366 -286 1 -2 22 2 48 9 32 8 46 16 46 28 0 10 -16 96 -35
191 -19 95 -35 175 -35 177 0 2 -22 3 -48 3 -45 0 -49 -2 -65 -35 l-17 -35
-62 35 c-103 56 -221 78 -355 64z"/>
<path d="M24416 9199 c-212 -23 -394 -146 -481 -324 -49 -99 -66 -174 -66
-290 -1 -182 50 -314 166 -431 126 -126 285 -185 500 -185 264 0 423 92 558
321 l26 44 -75 44 c-42 24 -77 42 -78 40 -54 -96 -147 -192 -224 -229 -56 -28
-174 -38 -234 -20 -114 35 -178 169 -178 379 l0 72 381 0 382 0 -6 74 c-8 92
-45 211 -86 275 -110 172 -330 258 -585 230z m173 -187 c40 -29 62 -76 68
-142 l6 -60 -163 0 -163 0 6 49 c7 55 34 116 65 144 44 40 133 45 181 9z"/>
<path d="M11023 7175 c-198 -43 -353 -197 -409 -405 -11 -44 -17 -103 -17
-180 0 -135 17 -211 71 -315 111 -215 360 -324 617 -270 147 31 253 112 319
244 l37 72 -35 14 c-20 8 -40 15 -45 15 -6 0 -23 -25 -37 -55 -58 -118 -188
-204 -319 -213 -179 -11 -287 77 -343 281 -24 89 -24 366 1 457 54 199 165
290 337 278 42 -3 88 -15 124 -31 68 -31 160 -116 201 -186 22 -37 36 -51 53
-51 12 0 25 6 27 13 2 6 -15 82 -39 167 l-42 155 -32 3 c-24 2 -33 -2 -43 -20
-6 -13 -13 -25 -15 -27 -1 -1 -27 8 -56 22 -98 46 -233 59 -355 32z"/>
<path d="M20223 7175 c-198 -43 -353 -197 -409 -405 -11 -44 -17 -103 -17
-180 0 -135 17 -211 71 -315 111 -215 360 -324 617 -270 147 31 253 112 319
244 l37 72 -35 14 c-20 8 -40 15 -45 15 -6 0 -23 -25 -37 -55 -58 -118 -188
-204 -319 -213 -179 -11 -287 77 -343 281 -24 89 -24 366 1 457 54 199 165
290 337 278 42 -3 88 -15 124 -31 68 -31 160 -116 201 -186 22 -37 36 -51 53
-51 12 0 25 6 27 13 2 6 -15 82 -39 167 l-42 155 -32 3 c-24 2 -33 -2 -43 -20
-6 -13 -13 -25 -15 -27 -1 -1 -27 8 -56 22 -98 46 -233 59 -355 32z"/>
<path d="M21035 7126 c-92 -53 -111 -67 -113 -90 -3 -24 -1 -26 35 -26 22 0
44 -5 51 -12 9 -9 12 -123 12 -450 0 -425 -1 -439 -20 -458 -11 -11 -33 -20
-50 -20 -27 0 -30 -3 -30 -30 l0 -30 200 0 200 0 0 29 c0 25 -4 29 -40 35 -24
4 -43 14 -50 25 -6 12 -10 116 -10 266 l0 246 54 25 c105 48 202 37 233 -26
16 -32 18 -481 3 -511 -7 -11 -26 -21 -50 -25 -36 -6 -40 -10 -40 -35 l0 -29
200 0 200 0 0 30 c0 27 -3 30 -30 30 -17 0 -39 9 -50 20 -19 19 -20 33 -20
258 0 252 -6 296 -47 350 -71 95 -246 106 -403 27 l-50 -25 0 245 0 245 -37 0
c-28 -1 -68 -18 -148 -64z"/>
<path d="M24485 7126 c-92 -53 -111 -67 -113 -90 -3 -24 -1 -26 35 -26 22 0
44 -5 51 -12 9 -9 12 -123 12 -450 0 -425 -1 -439 -20 -458 -11 -11 -33 -20
-50 -20 -27 0 -30 -3 -30 -30 l0 -30 200 0 200 0 0 29 c0 25 -4 29 -40 35 -24
4 -43 14 -50 25 -6 12 -10 116 -10 266 l0 246 54 25 c105 48 202 37 233 -26
16 -32 18 -481 3 -511 -7 -11 -26 -21 -50 -25 -36 -6 -40 -10 -40 -35 l0 -29
200 0 200 0 0 30 c0 27 -3 30 -30 30 -17 0 -39 9 -50 20 -19 19 -20 33 -20
258 0 252 -6 296 -47 350 -71 95 -246 106 -403 27 l-50 -25 0 245 0 245 -37 0
c-28 -1 -68 -18 -148 -64z"/>
<path d="M17683 7144 c-33 -16 -63 -66 -63 -104 0 -100 143 -148 212 -71 50
55 30 149 -37 177 -44 18 -72 17 -112 -2z"/>
<path d="M18235 6998 c-2 -7 -9 -31 -15 -53 -27 -90 -87 -163 -170 -205 -26
-13 -40 -27 -40 -40 0 -17 7 -20 50 -20 l50 0 0 -262 c0 -279 5 -319 46 -368
49 -57 204 -77 312 -39 29 10 32 15 32 51 0 34 -3 39 -17 33 -10 -3 -39 -9
-64 -12 -38 -5 -50 -2 -75 20 l-29 25 -3 276 -3 276 96 0 95 0 0 40 0 40 -95
0 -95 0 0 125 0 125 -35 0 c-20 0 -37 -6 -40 -12z"/>
<path d="M12031 6765 c-193 -54 -305 -215 -288 -415 13 -157 100 -274 246
-332 80 -32 242 -32 322 0 148 59 234 176 246 337 14 179 -82 334 -244 395
-76 29 -207 36 -282 15z m181 -77 c50 -15 101 -73 119 -136 9 -28 14 -95 14
-167 0 -141 -14 -198 -61 -253 -57 -67 -160 -79 -236 -29 -20 13 -45 46 -63
82 -29 58 -30 64 -30 200 0 125 3 146 23 192 28 61 57 90 109 108 48 18 75 18
125 3z"/>
<path d="M12755 6716 c-92 -53 -111 -67 -113 -90 -3 -24 -1 -26 35 -26 22 0
44 -5 51 -12 9 -9 12 -77 12 -245 0 -220 -1 -234 -20 -253 -11 -11 -33 -20
-50 -20 -27 0 -30 -3 -30 -30 l0 -30 200 0 200 0 0 29 c0 25 -4 29 -40 35 -24
4 -43 14 -50 25 -6 12 -10 116 -10 266 l0 246 54 25 c105 48 202 37 233 -26
16 -32 18 -481 3 -511 -7 -11 -26 -21 -50 -25 -36 -6 -40 -10 -40 -35 l0 -29
200 0 200 0 0 30 c0 27 -3 30 -30 30 -17 0 -39 9 -50 20 -19 19 -20 33 -20
254 0 129 -3 241 -6 249 -8 21 89 65 157 72 63 7 116 -14 136 -55 16 -32 18
-481 3 -511 -7 -11 -26 -21 -50 -25 -36 -6 -40 -10 -40 -35 l0 -29 200 0 200
0 0 30 c0 27 -3 30 -30 30 -17 0 -39 9 -50 20 -19 19 -20 33 -20 258 0 140 -5
253 -11 277 -44 161 -248 201 -456 91 l-63 -34 -33 33 c-37 37 -116 65 -182
65 -54 0 -144 -24 -205 -55 l-50 -25 0 40 c0 40 0 40 -37 40 -28 -1 -68 -18
-148 -64z"/>
<path d="M14235 6716 c-92 -53 -111 -67 -113 -90 -3 -24 -1 -26 35 -26 22 0
44 -5 51 -12 9 -9 12 -77 12 -245 0 -220 -1 -234 -20 -253 -11 -11 -33 -20
-50 -20 -27 0 -30 -3 -30 -30 l0 -30 200 0 200 0 0 29 c0 25 -4 29 -40 35 -24
4 -43 14 -50 25 -6 12 -10 116 -10 266 l0 246 54 25 c105 48 202 37 233 -26
16 -32 18 -481 3 -511 -7 -11 -26 -21 -50 -25 -36 -6 -40 -10 -40 -35 l0 -29
200 0 200 0 0 30 c0 27 -3 30 -30 30 -17 0 -39 9 -50 20 -19 19 -20 33 -20
254 0 129 -3 241 -6 249 -8 21 89 65 157 72 63 7 116 -14 136 -55 16 -32 18
-481 3 -511 -7 -11 -26 -21 -50 -25 -36 -6 -40 -10 -40 -35 l0 -29 200 0 200
0 0 30 c0 27 -3 30 -30 30 -17 0 -39 9 -50 20 -19 19 -20 33 -20 258 0 140 -5
253 -11 277 -44 161 -248 201 -456 91 l-63 -34 -33 33 c-37 37 -116 65 -182
65 -54 0 -144 -24 -205 -55 l-50 -25 0 40 c0 40 0 40 -37 40 -28 -1 -68 -18
-148 -64z"/>
<path d="M15705 6716 c-91 -53 -111 -68 -113 -90 -3 -23 0 -26 28 -26 17 0 40
-5 51 -10 18 -10 19 -23 19 -208 0 -108 5 -213 10 -233 44 -158 242 -205 440
-104 l50 25 0 -41 c0 -41 1 -41 30 -36 16 4 84 9 150 13 l120 7 0 27 c0 24 -5
28 -40 34 -24 4 -43 14 -50 25 -6 13 -10 142 -10 350 l0 331 -37 0 c-28 0 -67
-17 -148 -64 -91 -53 -111 -68 -113 -90 -3 -23 0 -26 28 -26 17 0 40 -5 51
-10 18 -10 19 -23 19 -221 l0 -210 -55 -25 c-77 -36 -151 -41 -193 -15 -18 12
-37 33 -42 47 -6 14 -10 153 -10 320 l0 294 -37 0 c-28 0 -67 -17 -148 -64z"/>
<path d="M16675 6716 c-92 -53 -111 -67 -113 -90 -3 -24 -1 -26 35 -26 22 0
44 -5 51 -12 9 -9 12 -77 12 -245 0 -220 -1 -234 -20 -253 -11 -11 -33 -20
-50 -20 -27 0 -30 -3 -30 -30 l0 -30 200 0 200 0 0 29 c0 25 -4 29 -40 35 -24
4 -43 14 -50 25 -6 12 -10 116 -10 266 l0 246 54 25 c105 48 202 37 233 -26
16 -32 18 -481 3 -511 -7 -11 -26 -21 -50 -25 -36 -6 -40 -10 -40 -35 l0 -29
200 0 200 0 0 30 c0 27 -3 30 -30 30 -17 0 -39 9 -50 20 -19 19 -20 33 -20
258 0 252 -6 296 -47 350 -71 95 -246 106 -403 27 l-50 -25 0 40 c0 40 0 40
-37 40 -28 -1 -68 -18 -148 -64z"/>
<path d="M17655 6716 c-92 -53 -111 -67 -113 -90 -3 -24 -1 -26 35 -26 22 0
44 -5 51 -12 9 -9 12 -77 12 -245 0 -220 -1 -234 -20 -253 -11 -11 -33 -20
-50 -20 -27 0 -30 -3 -30 -30 l0 -30 200 0 200 0 0 29 c0 25 -4 29 -40 35 -24
4 -43 14 -50 25 -6 13 -10 142 -10 350 l0 331 -37 0 c-28 -1 -68 -18 -148 -64z"/>
<path d="M22005 6716 c-91 -53 -111 -68 -113 -90 -3 -23 0 -26 28 -26 17 0 40
-5 51 -10 18 -10 19 -23 19 -208 0 -108 5 -213 10 -233 44 -158 242 -205 440
-104 l50 25 0 -41 c0 -41 1 -41 30 -36 16 4 84 9 150 13 l120 7 0 27 c0 24 -5
28 -40 34 -24 4 -43 14 -50 25 -6 13 -10 142 -10 350 l0 331 -37 0 c-28 0 -67
-17 -148 -64 -91 -53 -111 -68 -113 -90 -3 -23 0 -26 28 -26 17 0 40 -5 51
-10 18 -10 19 -23 19 -221 l0 -210 -55 -25 c-77 -36 -151 -41 -193 -15 -18 12
-37 33 -42 47 -6 14 -10 153 -10 320 l0 294 -37 0 c-28 0 -67 -17 -148 -64z"/>
<path d="M22985 6716 c-92 -53 -111 -67 -113 -90 -3 -24 -1 -26 35 -26 22 0
44 -5 51 -12 9 -9 12 -77 12 -245 0 -220 -1 -234 -20 -253 -11 -11 -33 -20
-50 -20 -27 0 -30 -3 -30 -30 l0 -30 200 0 200 0 0 29 c0 25 -4 29 -40 35 -24
4 -43 14 -50 25 -6 12 -10 111 -10 249 l0 230 30 25 c16 14 43 28 60 32 27 6
37 1 75 -34 37 -34 52 -41 85 -41 109 0 135 157 35 205 -69 32 -187 3 -257
-63 l-28 -26 0 52 0 52 -37 0 c-28 -1 -68 -18 -148 -64z"/>
<path d="M23864 6767 c-110 -29 -214 -120 -255 -225 -32 -81 -32 -233 0 -314
29 -74 104 -156 173 -190 199 -98 422 -37 512 139 22 44 21 50 -16 69 -30 16
-33 16 -43 -1 -72 -121 -111 -153 -197 -162 -101 -10 -176 34 -219 129 -21 47
-24 68 -24 183 0 100 4 142 18 182 21 61 71 109 122 119 76 14 123 -21 149
-109 19 -65 44 -87 98 -87 63 0 92 37 89 114 -1 41 -82 118 -147 140 -66 23
-196 29 -260 13z"/>
<path d="M18520 6735 c0 -18 8 -28 33 -38 17 -8 38 -21 45 -30 7 -9 73 -165
147 -349 l133 -332 -25 -56 c-47 -107 -86 -123 -157 -65 -71 58 -153 44 -172
-30 -14 -58 24 -112 94 -133 92 -28 167 -7 237 63 48 48 56 65 204 430 183
453 193 474 244 498 27 14 37 25 37 43 l0 24 -150 0 -150 0 0 -30 c0 -25 4
-30 23 -30 35 0 67 -28 67 -57 0 -34 -140 -387 -150 -376 -12 14 -132 336
-136 368 -6 39 6 55 47 64 27 5 35 12 37 34 l3 27 -205 0 -206 0 0 -25z"/>
</g>
</svg>
