<?xml version="1.0" standalone="no"?>
<!DOCTYPE svg PUBLIC "-//W3C//DTD SVG 20010904//EN"
 "http://www.w3.org/TR/2001/REC-SVG-20010904/DTD/svg10.dtd">
<svg version="1.0" xmlns="http://www.w3.org/2000/svg"
 width="4550.000000pt" height="2800.000000pt" viewBox="0 0 4550.000000 2800.000000"
 preserveAspectRatio="xMidYMid meet">

<g transform="translate(0.000000,2800.000000) scale(0.100000,-0.100000)"
fill="#000000" stroke="none">
<path d="M22390 25353 c-740 -40 -1169 -89 -1760 -202 -1595 -304 -3128 -961
-4460 -1909 -2303 -1641 -3931 -4115 -4520 -6872 -322 -1504 -343 -2975 -64
-4490 273 -1484 867 -2949 1707 -4210 442 -663 865 -1179 1442 -1755 479 -480
905 -842 1435 -1219 1165 -829 2435 -1417 3818 -1767 1514 -383 3073 -452
4612 -203 231 37 536 97 745 146 175 41 506 125 558 143 23 7 76 23 117 35
263 76 638 205 940 324 1367 540 2648 1358 3680 2351 771 742 1364 1484 1917
2400 288 476 680 1276 833 1700 10 28 39 103 64 167 56 148 170 486 235 700
174 575 320 1266 391 1843 6 50 15 124 20 165 79 650 92 1420 35 2170 -15 197
-18 221 -54 525 -44 360 -131 837 -226 1232 -687 2861 -2448 5338 -4926 6928
-512 329 -1013 596 -1634 870 -285 127 -799 317 -1108 411 -736 225 -1282 341
-2076 444 -172 23 -588 55 -886 70 -187 9 -692 11 -835 3z m1065 -558 c247
-16 491 -38 620 -55 44 -6 116 -15 160 -21 153 -19 341 -50 555 -90 1015 -191
1975 -518 2895 -985 2238 -1135 4015 -3010 5023 -5299 380 -864 627 -1702 786
-2665 23 -135 32 -202 71 -522 50 -410 74 -1068 57 -1541 -11 -297 -32 -640
-47 -751 -2 -23 -14 -117 -25 -211 -36 -292 -101 -694 -151 -918 -131 -592
-264 -1051 -449 -1547 -412 -1107 -991 -2123 -1734 -3044 -404 -501 -929
-1037 -1431 -1462 -890 -754 -1928 -1375 -3015 -1804 -228 -90 -376 -142 -404
-142 -35 1 -214 108 -536 321 -129 86 -239 158 -243 159 -11 5 -256 168 -287
190 -14 11 -36 25 -50 32 -36 19 -203 129 -370 244 -413 283 -705 578 -900
907 -53 90 -106 196 -135 269 -46 119 -94 272 -104 340 -7 41 -18 93 -24 115
-16 54 -16 485 0 540 6 22 16 76 23 120 6 44 31 139 55 210 132 400 370 728
679 936 48 33 102 67 120 76 17 9 33 19 36 22 3 3 57 31 120 62 291 143 471
229 475 229 2 0 34 14 70 30 36 16 68 30 71 30 6 0 131 53 178 76 16 8 33 14
38 14 4 0 43 16 86 36 42 20 104 48 136 62 131 59 419 208 503 261 322 200
449 295 614 460 206 207 268 336 256 538 -7 124 -24 171 -110 298 -85 124
-267 291 -364 332 -21 8 -35 22 -39 40 -4 15 -4 297 -1 628 4 330 10 1474 14
2541 5 1571 4 1950 -7 1988 -12 46 -72 112 -200 222 -25 22 -49 44 -55 50 -5
6 -64 60 -130 120 -66 60 -122 111 -125 114 -12 12 -406 376 -515 474 -66 60
-147 135 -180 165 -33 31 -116 108 -185 171 -69 63 -152 140 -185 170 -33 30
-96 89 -140 130 -44 42 -102 95 -130 120 -27 24 -102 92 -165 150 -113 105
-337 310 -435 401 -50 45 -108 99 -330 304 -66 61 -140 129 -165 151 -25 23
-136 125 -247 228 l-202 187 -3 1272 c-2 700 -1 1280 1 1289 3 17 43 18 615
20 l611 3 3 339 c2 265 -1 341 -10 348 -7 4 -284 8 -615 8 l-603 0 -2 573 -3
572 -395 0 -395 0 -5 -565 c-3 -311 -6 -566 -8 -567 -1 -2 -281 -3 -622 -3
l-620 0 0 -362 0 -361 608 6 c334 3 614 2 622 -3 11 -7 12 -212 7 -1312 l-7
-1303 -37 -34 c-21 -18 -67 -59 -102 -90 -35 -31 -73 -65 -85 -76 -12 -11
-113 -103 -226 -205 -112 -102 -227 -208 -255 -236 -51 -51 -417 -376 -725
-643 -35 -31 -100 -88 -145 -127 -44 -40 -219 -194 -390 -344 -170 -150 -341
-301 -380 -335 -38 -34 -86 -75 -105 -91 -19 -16 -44 -37 -55 -48 -11 -10
-198 -174 -415 -365 -495 -434 -579 -510 -602 -541 -10 -14 -26 -55 -35 -90
-15 -59 -16 -313 -14 -2885 l3 -2820 36 -64 c27 -47 48 -70 77 -85 40 -21 42
-21 1074 -19 965 3 1036 4 1064 20 49 29 70 67 81 146 12 91 14 1389 3 2962
l-8 1200 49 70 c26 38 67 84 90 101 49 38 167 78 277 95 116 18 2255 17 2340
-1 103 -21 205 -84 249 -152 12 -20 15 -323 21 -2158 4 -1412 10 -2148 17
-2175 6 -23 25 -53 46 -74 l36 -34 226 7 c124 4 356 7 515 7 160 -1 439 4 620
10 300 10 335 10 387 -6 64 -18 76 -29 57 -51 -26 -32 -402 -201 -579 -261
-25 -9 -63 -23 -85 -33 -22 -10 -65 -27 -95 -39 -30 -11 -95 -37 -144 -56 -50
-19 -95 -35 -101 -35 -6 0 -29 -8 -51 -18 -21 -11 -84 -31 -139 -47 -55 -15
-136 -38 -180 -51 -44 -13 -114 -31 -155 -39 -41 -9 -93 -23 -115 -30 -22 -8
-85 -24 -140 -36 -55 -12 -104 -26 -109 -31 -6 -4 -18 -8 -27 -8 -43 0 -733
-206 -824 -245 -16 -8 -52 -21 -80 -30 -27 -9 -63 -22 -80 -30 -16 -7 -66 -27
-110 -45 -44 -18 -91 -38 -105 -46 -14 -7 -59 -28 -100 -47 -133 -60 -306
-163 -426 -254 -65 -48 -154 -115 -199 -148 -84 -62 -164 -126 -225 -181 -19
-18 -80 -70 -135 -116 -120 -100 -153 -128 -225 -193 -85 -76 -392 -382 -420
-419 -14 -18 -42 -52 -62 -77 -54 -64 -154 -191 -228 -289 -35 -47 -86 -113
-113 -148 -186 -242 -371 -533 -514 -811 -41 -79 -78 -151 -83 -160 -22 -42
-120 -272 -120 -281 0 -6 -9 -29 -20 -53 -20 -42 -95 -255 -111 -312 -70 -261
-86 -332 -99 -454 -7 -58 -16 -116 -21 -129 -12 -30 -12 -440 0 -494 6 -24 19
-118 30 -211 13 -103 37 -229 62 -328 23 -88 39 -162 36 -166 -11 -10 -321 79
-657 189 -2426 792 -4507 2432 -5852 4613 -580 941 -1000 1933 -1283 3030 -36
140 -118 517 -144 660 -12 66 -26 140 -31 165 -27 134 -92 628 -109 835 -58
690 -61 1231 -11 1885 94 1214 420 2474 927 3590 17 36 40 88 53 115 12 28 65
136 117 240 437 875 927 1603 1589 2360 177 203 691 720 894 900 303 268 613
516 911 730 190 135 440 303 531 356 40 23 114 67 163 99 311 199 900 505
1316 684 640 274 1342 502 1964 636 165 36 174 38 343 70 538 101 1155 167
1717 184 216 6 725 -4 960 -19z"/>
<path d="M14566 16889 c-11 -14 -16 -32 -14 -50 3 -16 0 -31 -6 -33 -7 -3 -6
-5 2 -5 16 -1 16 -31 0 -31 -9 0 -9 -3 -1 -11 21 -21 44 -3 37 27 -4 15 -3 25
2 21 5 -3 9 5 10 16 1 12 5 37 9 55 9 39 -10 44 -39 11z"/>
<path d="M14560 16715 c-7 -9 -8 -15 -2 -15 5 0 12 7 16 15 3 8 4 15 2 15 -2
0 -9 -7 -16 -15z"/>
<path d="M15250 16471 c0 -6 4 -13 10 -16 6 -3 7 1 4 9 -7 18 -14 21 -14 7z"/>
<path d="M15242 16440 c7 -11 17 -20 22 -20 5 0 1 9 -9 20 -10 11 -20 20 -22
20 -2 0 2 -9 9 -20z"/>
<path d="M15210 16413 c0 -4 5 -15 10 -23 7 -11 12 -12 21 -3 8 8 6 14 -10 22
-12 7 -21 8 -21 4z"/>
<path d="M30508 13323 c-10 -2 -18 -11 -18 -19 0 -8 -4 -13 -9 -11 -5 1 -9 -2
-10 -8 0 -5 12 -10 28 -10 22 -1 27 2 20 11 -8 9 -4 11 13 8 21 -5 21 -4 4 6
-15 10 -16 14 -5 21 15 9 6 10 -23 2z"/>
<path d="M29632 13295 c-7 -8 -9 -15 -4 -15 5 0 15 7 22 15 16 19 -1 19 -18 0z"/>
<path d="M18071 13094 c0 -11 3 -14 6 -6 3 7 2 16 -1 19 -3 4 -6 -2 -5 -13z"/>
<path d="M18083 12985 c0 -22 2 -30 4 -17 2 12 2 30 0 40 -3 9 -5 -1 -4 -23z"/>
<path d="M18075 12906 c-4 -18 -3 -53 2 -77 9 -41 9 -38 9 34 0 42 -1 77 -3
77 -1 0 -5 -15 -8 -34z"/>
<path d="M18093 12599 c9 -36 11 -158 4 -166 -12 -11 -8 -225 3 -218 6 3 10
21 10 40 0 19 5 37 10 40 13 8 13 138 1 151 -6 5 -11 44 -12 87 -1 43 -6 80
-12 84 -6 4 -8 -3 -4 -18z"/>
</g>
</svg>
